<?xml version="1.0" encoding="UTF-8"?>
<svg id="_レイヤー_1" data-name="レイヤー 1" xmlns="http://www.w3.org/2000/svg" xmlns:xlink="http://www.w3.org/1999/xlink" viewBox="0 0 279.27 188.43">
  <defs>
    <style>
      .cls-1 {
        stroke-dasharray: 0 0 2.03 2.03;
      }

      .cls-1, .cls-2, .cls-3, .cls-4, .cls-5, .cls-6 {
        fill: none;
      }

      .cls-1, .cls-3, .cls-4, .cls-5, .cls-6 {
        stroke: #231815;
        stroke-miterlimit: 10;
      }

      .cls-1, .cls-3, .cls-5, .cls-6 {
        stroke-width: .5px;
      }

      .cls-7 {
        clip-path: url(#clippath);
      }

      .cls-2, .cls-8, .cls-9, .cls-10 {
        stroke-width: 0px;
      }

      .cls-3 {
        stroke-dasharray: 0 0 2.01 2.01;
      }

      .cls-11 {
        clip-path: url(#clippath-1);
      }

      .cls-12 {
        clip-path: url(#clippath-4);
      }

      .cls-13 {
        clip-path: url(#clippath-3);
      }

      .cls-14 {
        clip-path: url(#clippath-2);
      }

      .cls-15 {
        clip-path: url(#clippath-5);
      }

      .cls-16 {
        font-family: STIXTwoText, 'STIX Two Text';
        font-size: 10px;
        font-variation-settings: 'wght' 400;
      }

      .cls-16, .cls-9 {
        fill: #231815;
      }

      .cls-4 {
        stroke-width: .75px;
      }

      .cls-5 {
        stroke-dasharray: 0 0 1.94 1.94;
      }

      .cls-10 {
        fill: #fff;
      }
    </style>
    <clipPath id="clippath">
      <rect class="cls-2" x="11.93" y="41.36" width="11" height="9"/>
    </clipPath>
    <clipPath id="clippath-1">
      <rect class="cls-2" y="168.9" width="23" height="9"/>
    </clipPath>
    <clipPath id="clippath-2">
      <rect class="cls-2" x="60.39" y="132.69" width="9" height="10"/>
    </clipPath>
    <clipPath id="clippath-3">
      <rect class="cls-2" x="177.97" y="137.69" width="9" height="10"/>
    </clipPath>
    <clipPath id="clippath-4">
      <rect class="cls-2" x="273.27" y="139.25" width="6" height="6"/>
    </clipPath>
    <clipPath id="clippath-5">
      <rect class="cls-2" x="83.11" y="1.55" width="23" height="9"/>
    </clipPath>
  </defs>
  <g>
    <line class="cls-4" x1="26.07" y1="15.57" x2="26.07" y2="188.43"/>
    <polygon class="cls-9" points="23.69 20.01 24.39 20.26 26.07 15.65 27.75 20.26 28.46 20.01 26.07 13.45 23.69 20.01"/>
  </g>
  <g>
    <line class="cls-10" x1="242.87" y1="130.45" x2="11.78" y2="130.45"/>
    <g>
      <line class="cls-4" x1="240.75" y1="130.45" x2="11.78" y2="130.45"/>
      <polygon class="cls-9" points="236.32 128.06 236.06 128.77 240.68 130.45 236.06 132.13 236.32 132.83 242.87 130.45 236.32 128.06"/>
    </g>
  </g>
  <g>
    <polyline class="cls-4" points="117.37 115.82 90.95 173.4 143.35 173.4 201.89 45.86 64.89 45.86 26.07 130.45"/>
    <polygon class="cls-9" points="115.67 116.2 117.18 116.24 118.2 117.36 118.31 113.79 115.67 116.2"/>
  </g>
  <g>
    <line class="cls-6" x1="64.89" y1="45.86" x2="64.89" y2="46.86"/>
    <line class="cls-3" x1="64.89" y1="48.87" x2="64.89" y2="128.44"/>
    <line class="cls-6" x1="64.89" y1="129.45" x2="64.89" y2="130.45"/>
  </g>
  <g>
    <line class="cls-6" x1="201.89" y1="130.45" x2="201.89" y2="129.45"/>
    <line class="cls-3" x1="201.89" y1="127.43" x2="201.89" y2="47.86"/>
    <line class="cls-6" x1="201.89" y1="46.86" x2="201.89" y2="45.86"/>
  </g>
  <g>
    <line class="cls-6" x1="64.89" y1="45.86" x2="63.89" y2="45.86"/>
    <line class="cls-5" x1="61.96" y1="45.86" x2="28.04" y2="45.86"/>
    <line class="cls-6" x1="27.07" y1="45.86" x2="26.07" y2="45.86"/>
  </g>
  <g>
    <line class="cls-6" x1="90.95" y1="173.4" x2="89.95" y2="173.4"/>
    <line class="cls-1" x1="87.92" y1="173.4" x2="28.09" y2="173.4"/>
    <line class="cls-6" x1="27.07" y1="173.4" x2="26.07" y2="173.4"/>
  </g>
  <text class="cls-16" transform="translate(210.74 144.75)"><tspan x="0" y="0">Displacement</tspan></text>
  <text class="cls-16" transform="translate(11.93 8.28)"><tspan x="0" y="0">Static resistance</tspan></text>
  <g class="cls-7">
    <path class="cls-8" d="m15.14,41.93c.23-.02.33-.03.59-.03.99,0,1.29.49,1.29,1.03,0,1.27-.93,1.72-2.12,1.76h-.31s.56-2.76.56-2.76m2.86.96c0-.97-.82-1.37-2.21-1.37h-2.34l-.06.3c.8,0,.86.19.75.74l-.88,4.27c-.17.84-.32.94-1.06.94l-.06.3h2.75l.05-.3c-.86,0-.97-.11-.8-.94l.37-1.77h.21c.36,0,.49.06.64.34.31.61.52,1.03,1.26,2.67h1.52l.06-.3c-.46,0-.7-.11-.92-.51-.82-1.54-1.02-2.05-1.38-2.3v-.05c.87-.15,2.09-.61,2.09-2.01Z"/>
    <path class="cls-8" d="m19.98,50.23c-.3-.02-.51-.09-.67-.28-.19-.22-.24-.52-.24-.99v-1.41c-.01-.15-.01-.22-.04-.27-.06-.06-.07-.1-.14-.11-.09-.05-.17-.03-.29-.03v-.2l.9-.1h.15v2.03c0,.24.03.42.08.55.02.11.13.23.22.28.09.04.2.08.32.08.16,0,.33-.04.46-.12.1-.08.26-.18.4-.3v-1.83c-.03-.15-.02-.22-.05-.27-.05-.06-.09-.09-.17-.11-.11-.05-.2-.03-.34-.03v-.2l.98-.1h.17v2.56c-.02.2.03.33.08.38.04.05.17.08.34.08h.07v.19l-.88.16h-.15v-.54h-.03c-.15.09-.24.22-.36.31-.13.08-.24.15-.37.19-.15.04-.27.07-.41.07"/>
  </g>
  <g class="cls-11">
    <rect class="cls-8" x=".42" y="172.68" width="5.94" height=".68"/>
    <path class="cls-8" d="m8.78,174.87c-.46,0-.91-.33-.91-1.2,0-1.34.77-2.01,1.84-2.01.64,0,.97.28.97.9,0,.16-.01.28-.02.35-.08.69-.88,1.96-1.88,1.96m2.23-2.57c-.09-.56-.28-1.47-1.25-1.47-1.38,0-2.35,1.24-2.35,3.07,0,1.15.33,1.84,1.15,1.84.73,0,1.4-.78,1.98-1.72h.08c-.03.33-.08.61-.08.85,0,.49.17.85.64.85.81,0,1.18-.73,1.33-.98l-.16-.16c-.19.21-.38.39-.68.39-.53,0-.53-.97-.53-1.68v-.11s.49-.71,1.25-1.76c.07-.1.22-.28.29-.36v-.15s-.84.02-.84.02c-.19.26-.54.82-.78,1.38h-.06Z"/>
    <path class="cls-8" d="m15.71,169.47c.23-.02.33-.03.59-.03.99,0,1.29.49,1.29,1.03,0,1.27-.93,1.72-2.12,1.76h-.31s.56-2.76.56-2.76m2.86.96c0-.97-.82-1.37-2.21-1.37h-2.34l-.06.3c.8,0,.86.19.75.74l-.88,4.27c-.17.84-.32.94-1.06.94l-.06.3h2.75l.05-.3c-.86,0-.97-.11-.8-.94l.37-1.77h.21c.36,0,.49.06.64.34.31.61.52,1.03,1.26,2.67h1.52l.06-.3c-.46,0-.7-.11-.92-.51-.82-1.54-1.02-2.05-1.38-2.3v-.05c.87-.15,2.09-.61,2.09-2.01Z"/>
    <path class="cls-8" d="m20.55,177.77c-.3-.02-.51-.09-.67-.28-.19-.22-.24-.52-.24-.99v-1.41c-.01-.15-.01-.22-.04-.27-.06-.06-.07-.1-.14-.11-.09-.05-.17-.03-.29-.03v-.2l.9-.1h.15v2.03c0,.24.03.42.08.55.02.11.13.23.22.28.09.04.2.08.32.08.16,0,.33-.04.46-.12.1-.08.26-.18.4-.3v-1.83c-.03-.15-.02-.22-.05-.27-.05-.06-.09-.09-.17-.11-.11-.05-.2-.03-.34-.03v-.2l.98-.1h.17v2.56c-.03.2.03.33.08.38.04.05.17.08.34.08h.07v.19l-.88.16h-.15v-.54h-.03c-.15.09-.24.22-.36.31-.13.08-.24.15-.37.19-.15.04-.27.07-.41.07"/>
  </g>
  <g>
    <line class="cls-6" x1="163.63" y1="134.45" x2="201.31" y2="134.45"/>
    <polygon class="cls-9" points="164.63 135.3 163.78 134.45 164.63 133.6 163.91 133.6 163.06 134.45 163.91 135.3 164.63 135.3"/>
    <polygon class="cls-9" points="200.32 135.3 201.17 134.45 200.32 133.6 201.04 133.6 201.89 134.45 201.04 135.3 200.32 135.3"/>
  </g>
  <g class="cls-14">
    <path class="cls-8" d="m60.61,134.85c.16-.2.4-.54.74-.54.14,0,.21.08.21.2,0,.13-.04.27-.04.27l-.56,2.26c-.04.14-.1.47-.1.73,0,.37.15.72.66.72,1.17,0,1.96-1.37,2.34-2.06h.09c-.17.65-.32,1.05-.32,1.51,0,.44.33.54.6.54.61,0,.98-.41,1.41-1.05l-.21-.15s-.37.52-.73.52c-.16,0-.21-.09-.21-.17,0-.15.06-.43.06-.43l.72-3.5h-.83l-.3,1.38c-.23,1.02-1.4,2.69-2.13,2.69-.23,0-.3-.17-.3-.41,0-.2.07-.48.07-.48l.6-2.28c0-.05.05-.22.05-.39,0-.29-.15-.58-.63-.58-.71,0-1.15.69-1.4,1.06l.2.16"/>
    <path class="cls-8" d="m67.54,140.04c.16-.02.31-.02.43-.07.09-.07.22-.11.32-.19v-1.83c-.08-.19-.13-.31-.25-.41-.13-.11-.27-.14-.45-.14-.33-.03-.53.11-.7.33-.21.21-.26.54-.26.98-.01.25.03.48.08.68.05.18.15.37.29.48.1.09.32.18.55.18m1.78,1.99h-1.69v-.2c.18-.01.33-.02.42-.05.07-.06.15-.09.18-.17.01-.09.05-.19.05-.33v-1.23h-.02c-.18.11-.31.25-.47.35-.16.09-.36.15-.59.15-.25-.02-.45-.06-.63-.2-.21-.15-.31-.31-.41-.55-.12-.24-.15-.52-.15-.84-.01-.39.07-.7.21-.97.13-.31.33-.49.57-.65.24-.17.51-.23.8-.23.15,0,.29.02.41.06.12.01.26.1.41.2l.19-.23h.26v4.22c-.02.16.03.3.08.37.04.06.18.1.38.1v.2Z"/>
  </g>
  <g class="cls-13">
    <path class="cls-8" d="m178.19,139.85c.16-.2.4-.54.74-.54.14,0,.21.08.21.2,0,.13-.04.27-.04.27l-.56,2.26c-.04.14-.1.47-.1.73,0,.37.15.72.66.72,1.17,0,1.96-1.37,2.34-2.06h.09c-.17.65-.32,1.05-.32,1.51,0,.44.33.54.6.54.61,0,.98-.41,1.41-1.05l-.21-.15s-.37.52-.73.52c-.16,0-.21-.09-.21-.17,0-.15.06-.43.06-.43l.72-3.5h-.83l-.3,1.38c-.23,1.02-1.4,2.69-2.13,2.69-.23,0-.3-.17-.3-.41,0-.2.07-.48.07-.48l.6-2.28c0-.05.05-.22.05-.39,0-.29-.15-.58-.63-.58-.71,0-1.15.69-1.4,1.06l.2.16"/>
    <path class="cls-8" d="m185.12,145.04c.16-.02.31-.02.43-.07.09-.07.22-.11.32-.19v-1.83c-.08-.19-.13-.31-.25-.41-.13-.11-.27-.14-.45-.14-.33-.03-.53.11-.7.33-.21.21-.26.54-.26.98-.01.25.03.48.08.68.05.18.15.37.29.48.1.09.32.18.55.18m1.78,1.99h-1.69v-.2c.18-.01.33-.02.42-.05.07-.06.15-.09.18-.17.01-.09.05-.19.05-.33v-1.23h-.02c-.18.11-.31.25-.47.35-.16.09-.36.15-.59.15-.25-.02-.45-.06-.63-.2-.21-.15-.31-.31-.41-.55-.12-.24-.15-.52-.15-.84-.01-.39.07-.7.21-.97.13-.31.33-.49.57-.65.24-.17.51-.23.8-.23.15,0,.29.02.41.06.12.01.26.1.41.2l.19-.23h.26v4.22c-.02.16.03.3.08.37.04.06.18.1.38.1v.2Z"/>
  </g>
  <g class="cls-12">
    <path class="cls-8" d="m273.49,141.41c.16-.2.4-.54.74-.54.14,0,.21.08.21.2,0,.13-.04.27-.04.27l-.56,2.26c-.04.14-.1.47-.1.73,0,.37.15.72.66.72,1.17,0,1.96-1.37,2.34-2.06h.09c-.17.65-.32,1.05-.32,1.51,0,.44.33.54.6.54.61,0,.98-.41,1.41-1.05l-.21-.15s-.37.52-.73.52c-.16,0-.21-.09-.21-.17,0-.15.06-.43.06-.43l.72-3.5h-.83l-.3,1.38c-.23,1.02-1.4,2.69-2.13,2.69-.23,0-.3-.17-.3-.41,0-.2.07-.48.07-.48l.6-2.28c0-.05.05-.22.05-.39,0-.29-.15-.58-.63-.58-.71,0-1.15.69-1.4,1.06l.2.16"/>
  </g>
  <g class="cls-15">
    <path class="cls-8" d="m86.52,2.13c.23-.02.33-.03.59-.03.99,0,1.29.49,1.29,1.03,0,1.27-.93,1.72-2.12,1.76h-.31s.56-2.76.56-2.76m2.86.96c0-.97-.82-1.37-2.21-1.37h-2.34l-.06.3c.8,0,.86.19.75.74l-.88,4.27c-.17.84-.32.94-1.06.94l-.06.3h2.75l.05-.3c-.86,0-.97-.11-.8-.94l.37-1.77h.21c.36,0,.49.06.64.34.31.61.52,1.03,1.26,2.67h1.52l.06-.3c-.46,0-.7-.11-.92-.51-.82-1.54-1.02-2.05-1.38-2.3v-.05c.87-.15,2.09-.61,2.09-2.01Z"/>
    <path class="cls-8" d="m90.11,10.41l-.02-1.2h.18c.06.34.18.61.33.75.12.14.34.21.6.21.15,0,.32-.04.43-.11.11-.08.17-.19.17-.35-.03-.13-.02-.2-.06-.28-.05-.1-.12-.15-.23-.23-.14-.1-.28-.17-.5-.28-.25-.13-.39-.21-.52-.31-.16-.12-.23-.21-.3-.33-.09-.13-.1-.27-.1-.44-.03-.32.1-.51.31-.65.18-.16.46-.22.76-.22.16,0,.32.02.43.06.09.01.21.08.3.12h0l.12-.15h.14l.02,1.07h-.19c-.1-.34-.18-.56-.32-.68-.15-.14-.31-.18-.52-.18-.17-.02-.29.04-.4.11-.12.05-.16.19-.16.35-.02.13.06.26.19.36.11.08.34.23.63.38.18.09.39.22.54.33.14.07.25.22.33.34.06.11.11.27.11.44-.02.2-.05.39-.16.53-.11.1-.25.23-.43.29-.2.03-.37.09-.58.09-.23-.03-.36-.02-.48-.06-.12-.05-.22-.08-.32-.12h-.01l-.15.16h-.15"/>
    <path class="cls-8" d="m94.66,9.73l.13.11c-.11.1-.17.23-.25.32-.09.09-.16.15-.25.2-.12.05-.21.07-.36.07-.24-.02-.4-.07-.51-.21-.11-.16-.16-.36-.16-.67v-2.16h-.38v-.16c.14-.13.3-.24.42-.41.09-.19.24-.41.37-.71h.18v.99h.79v.29h-.79v1.97c0,.21.02.42.07.52.01.09.13.15.27.15.09-.02.2-.02.26-.07.06-.08.14-.12.23-.22"/>
    <path class="cls-8" d="m95.91,10.4c-.3-.02-.47-.07-.62-.22-.17-.16-.21-.33-.21-.56-.02-.21.04-.34.13-.47.06-.16.2-.24.34-.32.13-.11.29-.16.46-.22.13-.08.33-.11.48-.15.13-.08.3-.08.42-.12v-.31c-.03-.33-.05-.52-.16-.64-.12-.14-.26-.19-.47-.19-.22-.01-.33.04-.38.13-.08.06-.08.23-.08.44,0,.11-.03.19-.08.24-.06.04-.13.08-.23.08-.1,0-.14-.03-.2-.08-.1-.07-.09-.14-.09-.26,0-.16.05-.25.15-.37.08-.12.24-.21.43-.29.16-.09.4-.11.65-.11.37,0,.65.09.81.27.15.15.24.45.24.81v1.58c-.03.12.02.24.05.28.02.02.09.06.16.06.04,0,.12-.02.18-.05.03-.06.1-.08.15-.13l.1.11c-.12.15-.23.29-.33.37-.13.07-.24.11-.42.11-.18-.01-.27-.05-.32-.14-.06-.12-.08-.22-.11-.4l-.04-.08v-1.2c-.24.05-.41.11-.59.18-.19.04-.34.16-.45.27-.13.09-.17.26-.17.44-.03.17.05.31.14.41.09.1.21.15.36.15.09-.02.25-.03.38-.09.11-.09.26-.15.39-.26l.05.25h-.08c-.11.07-.21.18-.31.25-.1.07-.21.13-.32.17-.14.01-.24.06-.39.06"/>
    <path class="cls-8" d="m100.16,9.73l.13.11c-.11.1-.17.23-.25.32-.09.09-.16.15-.25.2-.12.05-.21.07-.36.07-.24-.02-.4-.07-.51-.21-.11-.16-.16-.36-.16-.67v-2.16h-.38v-.16c.14-.13.3-.24.42-.41.09-.19.24-.41.37-.71h.17v.99h.79v.29h-.79v1.97c0,.21.02.42.07.52.01.09.13.15.27.15.09-.02.2-.02.26-.07.06-.08.14-.12.23-.22"/>
    <path class="cls-8" d="m101.32,6.45c-.12-.03-.21-.04-.29-.12-.08-.11-.11-.17-.11-.28,0-.11.04-.2.11-.27.07-.09.17-.12.29-.12.12,0,.22.04.29.12.07.07.11.17.11.27,0,.11-.04.2-.11.28-.07.05-.17.12-.29.12m.78,3.9h-1.57v-.2c.15,0,.27-.01.34-.05.05-.05.11-.08.12-.16-.01-.08.02-.18.02-.31v-1.95c0-.17-.03-.24-.08-.27-.06-.06-.13-.05-.23-.05-.05,0-.09,0-.12,0-.06,0-.05,0-.05,0v-.2l.88-.2h.18v2.66c-.03.1,0,.24.03.31.01.07.06.12.14.15.05,0,.18.04.34.04v.2Z"/>
    <path class="cls-8" d="m105.16,9.32l.13.1c-.11.16-.19.36-.3.51-.14.13-.25.27-.42.36-.18.08-.38.13-.63.13-.3-.02-.54-.07-.75-.21-.24-.16-.37-.33-.48-.58-.14-.28-.17-.53-.17-.85-.01-.38.06-.68.18-.95.12-.29.3-.48.54-.63.22-.16.52-.22.85-.22.33,0,.59.07.78.22.16.13.28.32.28.52-.02.08-.02.18-.07.23-.08.02-.12.08-.22.08-.13-.02-.18-.03-.23-.08-.07-.08-.1-.12-.13-.2-.04-.11-.07-.16-.1-.24-.04-.1-.08-.15-.15-.2-.08-.07-.15-.08-.27-.08-.31-.03-.51.1-.67.31-.17.18-.24.51-.24.91-.03.39.09.77.26,1.04.16.26.44.41.8.41.21-.02.41-.05.55-.14.11-.1.29-.24.45-.44"/>
  </g>
</svg>